{"title":"50 Cent Ft. Prodigy, Kidd Kidd &amp; Styles P - Chase The Paper ","uid":10086529,"size":75303227,"categoryP":"video","categoryS":"music_videos","magnet":"?xt=urn:btih:10c22601b794253207f933c6b6870ac5927f8a0f&amp;dn=50+Cent+Ft.+Prodigy%2C+Kidd+Kidd+%26amp%3B+Styles+P+-+Chase+The+Paper+&amp;tr=udp%3A%2F%2Ftracker.openbittorrent.com%3A80&amp;tr=udp%3A%2F%2Fopen.demonii.com%3A1337&amp;tr=udp%3A%2F%2Ftracker.coppersurfer.tk%3A6969&amp;tr=udp%3A%2F%2Fexodus.desync.com%3A6969","seeders":1,"leechers":0,"uploader":"Sbyky","files":1,"time":1399108129,"description":"\n\nGeneral\nComplete name                            : 50 Cent Ft. Prodigy, Kidd Kidd &amp; Styles P - Chase The Paper [Explicit] 720p [Sbyky].mp4\nFormat                                   : MPEG-4\nFormat profile                           : Base Media\nCodec ID                                 : isom\nFile size                                : 71.8 MiB\nDuration                                 : 4mn 19s\nOverall bit rate mode                    : Variable\nOverall bit rate                         : 2 318 Kbps\nEncoded date                             : UTC 2014-04-16 22:47:05\nTagged date                              : UTC 2014-04-16 22:47:05\n\nVideo\nID                                       : 1\nFormat                                   : AVC\nFormat/Info                              : Advanced Video Codec\nFormat profile                           : &lt;a class=&quot;__cf_email__&quot; href=&quot;/cdn-cgi/l/email-protection&quot; data-cfemail=&quot;1b567a72755b5728352a&quot;&gt;[email&amp;#160;protected]&lt;/a&gt;&lt;script cf-hash='f9e31' type=&quot;text/javascript&quot;&gt;\n/* &lt;![CDATA[ */!function(){try{var t=&quot;currentScript&quot;in document?document.currentScript:function(){for(var t=document.getElementsByTagName(&quot;script&quot;),e=t.length;e--;)if(t[e].getAttribute(&quot;cf-hash&quot;))return t[e]}();if(t&amp;&amp;t.previousSibling){var e,r,n,i,c=t.previousSibling,a=c.getAttribute(&quot;data-cfemail&quot;);if(a){for(e=&quot;&quot;,r=parseInt(a.substr(0,2),16),n=2;a.length-n;n+=2)i=parseInt(a.substr(n,2),16)^r,e+=String.fromCharCode(i);e=document.createTextNode(e),c.parentNode.replaceChild(e,c)}}}catch(u){}}();/* ]]&gt; */&lt;/script&gt;\nFormat settings, CABAC                   : Yes\nFormat settings, ReFrames                : 3 frames\nCodec ID                                 : avc1\nCodec ID/Info                            : Advanced Video Coding\nDuration                                 : 4mn 19s\nBit rate                                 : 2 188 Kbps\nWidth                                    : 1 280 pixels\nHeight                                   : 720 pixels\nDisplay aspect ratio                     : 16:9\nFrame rate mode                          : Variable\nFrame rate                               : 23.976 fps\nMinimum frame rate                       : 23.974 fps\nMaximum frame rate                       : 24.516 fps\nColor space                              : YUV\nChroma subsampling                       : 4:2:0\nBit depth                                : 8 bits\nScan type                                : Progressive\nBits/(Pixel*Frame)                       : 0.099\nStream size                              : 67.8 MiB (94%)\nEncoded date                             : UTC 2014-04-16 22:47:05\nTagged date                              : UTC 2014-04-16 22:47:05\n\nAudio\nID                                       : 2\nFormat                                   : AAC\nFormat/Info                              : Advanced Audio Codec\nFormat profile                           : LC\nCodec ID                                 : 40\nDuration                                 : 4mn 19s\nBit rate mode                            : Variable\nBit rate                                 : 126 Kbps\nChannel(s)                               : 2 channels\nChannel positions                        : Front: L R\nSampling rate                            : 44.1 KHz\nCompression mode                         : Lossy\nStream size                              : 3.89 MiB (5%)\nEncoded date                             : UTC 2014-04-16 22:47:04\nTagged date                              : UTC 2014-04-16 22:47:04\n\nShared By Sbyky\n","torrent":{"xt":"urn:btih:10c22601b794253207f933c6b6870ac5927f8a0f","amp;dn":"50+Cent+Ft.+Prodigy%2C+Kidd+Kidd+%26amp%3B+Styles+P+-+Chase+The+Paper+","amp;tr":["udp%3A%2F%2Ftracker.openbittorrent.com%3A80","udp%3A%2F%2Fopen.demonii.com%3A1337","udp%3A%2F%2Ftracker.coppersurfer.tk%3A6969","udp%3A%2F%2Fexodus.desync.com%3A6969"],"infoHash":"10c22601b794253207f933c6b6870ac5927f8a0f","infoHashBuffer":{"type":"Buffer","data":[16,194,38,1,183,148,37,50,7,249,51,198,182,135,10,197,146,127,138,15]},"announce":[],"urlList":[]}}